<?xml version="1.0" encoding="UTF-8"?>
<svg width="828px" height="267px" viewBox="0 0 828 267" version="1.1" xmlns="http://www.w3.org/2000/svg" xmlns:xlink="http://www.w3.org/1999/xlink">
    <!-- Generator: Sketch 48.2 (47327) - http://www.bohemiancoding.com/sketch -->
    <title>Artboard 2</title>
    <desc>Created with Sketch.</desc>
    <defs></defs>
    <g id="Page-1" stroke="none" stroke-width="1" fill="none" fill-rule="evenodd">
        <g id="Artboard-2" fill="#302832">
            <g id="Group-16-Copy" transform="translate(113.000000, 48.000000)">
                <g id="Group-12" transform="translate(0.000000, 27.000000)">
                    <path d="M48.192,97 L44.64,88.744 L18.72,88.744 L15.168,97 L1.248,97 L29.568,32.488 L33.888,32.488 L62.112,97 L48.192,97 Z M40.032,78.088 L31.68,56.776 L23.328,78.088 L40.032,78.088 Z M89.376,48.424 C101.472,48.424 109.728,55.24 109.728,68.776 L109.728,97 L97.824,97 L97.824,92.392 C94.464,95.944 89.472,98.152 83.328,98.152 C72.96,98.152 66.912,92.008 66.912,83.944 C66.912,75.304 73.92,70.12 84.864,70.12 L96.768,70.12 L96.768,68.008 C96.768,62.824 93.792,59.656 87.936,59.656 C82.848,59.656 79.296,62.056 75.36,66.184 L68.64,58.216 C74.208,51.592 81.024,48.424 89.376,48.424 Z M86.784,88.648 C92.256,88.648 96.768,84.808 96.768,79.24 L96.768,78.664 L86.592,78.664 C82.368,78.664 79.968,80.296 79.968,83.464 C79.968,86.728 82.752,88.648 86.784,88.648 Z" id="Aa"></path>
                    <path d="M284.496,97 L279.984,86.44 L251.472,86.44 L246.96,97 L236.112,97 L264.048,32.584 L267.504,32.584 L295.44,97 L284.496,97 Z M276.24,77.704 L265.776,51.4 L255.216,77.704 L276.24,77.704 Z M322.992,48.808 C334.32,48.808 342.288,55.432 342.288,68.488 L342.288,97 L332.88,97 L332.88,91.72 C329.52,95.752 324.336,98.056 317.808,98.056 C307.92,98.056 301.392,92.584 301.392,84.424 C301.392,76.168 308.208,70.984 318.768,70.984 L332.112,70.984 L332.112,67.912 C332.112,61.384 328.464,57.832 322.032,57.832 C316.56,57.832 312.72,60.424 308.976,64.84 L303.12,58.888 C308.016,51.976 315.024,48.808 322.992,48.808 Z M319.92,90.28 C326.544,90.28 332.112,85.576 332.112,79.144 L332.112,78.28 L320.016,78.28 C314.64,78.28 311.664,80.2 311.664,84.04 C311.664,88.168 315.312,90.28 319.92,90.28 Z" id="Aa-Copy"></path>
                    <path d="M520.704,97 L515.232,84.136 L484.32,84.136 L478.848,97 L470.976,97 L498.432,32.584 L501.216,32.584 L528.672,97 L520.704,97 Z M512.448,77.416 L499.776,46.312 L487.104,77.416 L512.448,77.416 Z M556.608,49.192 C567.264,49.192 574.848,55.624 574.848,68.2 L574.848,97 L567.936,97 L567.936,90.952 C564.576,95.464 559.104,98.056 552.192,98.056 C542.784,98.056 535.872,93.064 535.872,84.904 C535.872,77.032 542.496,71.848 552.672,71.848 L567.456,71.848 L567.456,67.816 C567.456,59.944 563.04,56.008 556.128,56.008 C550.272,56.008 546.144,58.792 542.496,63.496 L537.6,59.464 C542.016,52.36 549.12,49.192 556.608,49.192 Z M553.152,91.912 C560.832,91.912 567.456,86.344 567.456,79.048 L567.456,77.896 L553.536,77.896 C547.008,77.896 543.456,80.104 543.456,84.52 C543.456,89.512 547.968,91.912 553.152,91.912 Z" id="Aa-Copy-2"></path>
                    <path d="M10.56,128.272 C13.608,128.272 16.152,129.784 17.544,132.208 L15.096,133.936 C14.04,132.256 12.552,131.272 10.56,131.272 C7.608,131.272 5.448,133.432 5.448,136.504 C5.448,139.552 7.608,141.688 10.56,141.688 C12.552,141.688 14.04,140.704 15.096,139.024 L17.544,140.752 C16.176,143.176 13.608,144.688 10.536,144.688 C5.832,144.688 2.112,141.136 2.112,136.48 C2.112,131.824 5.832,128.272 10.56,128.272 Z M30.984,137.776 C30.984,138.448 30.864,139.144 30.768,139.552 L22.416,139.552 C22.824,141.064 24.072,141.904 25.776,141.904 C27.072,141.904 28.128,141.448 29.088,140.704 L30.432,142.912 C29.088,144.04 27.504,144.688 25.68,144.688 C21.912,144.688 19.176,141.976 19.176,138.472 C19.176,134.968 21.888,132.256 25.392,132.256 C28.728,132.256 30.984,134.704 30.984,137.776 Z M25.272,134.872 C23.904,134.872 22.8,135.784 22.416,137.272 L27.84,137.272 C27.816,135.76 26.64,134.872 25.272,134.872 Z M39.744,132.376 C40.176,132.376 40.488,132.424 40.8,132.52 L40.8,135.376 L39.936,135.376 C38.064,135.376 36.744,136.336 36.744,138.472 L36.744,144.4 L33.504,144.4 L33.504,132.52 L36.48,132.52 L36.48,133.96 C37.272,132.928 38.448,132.376 39.744,132.376 Z M47.448,132.256 C50.472,132.256 52.536,133.96 52.536,137.344 L52.536,144.4 L49.56,144.4 L49.56,143.248 C48.72,144.136 47.472,144.688 45.936,144.688 C43.344,144.688 41.832,143.152 41.832,141.136 C41.832,138.976 43.584,137.68 46.32,137.68 L49.296,137.68 L49.296,137.152 C49.296,135.856 48.552,135.064 47.088,135.064 C45.816,135.064 44.928,135.664 43.944,136.696 L42.264,134.704 C43.656,133.048 45.36,132.256 47.448,132.256 Z M46.8,142.312 C48.168,142.312 49.296,141.352 49.296,139.96 L49.296,139.816 L46.752,139.816 C45.696,139.816 45.096,140.224 45.096,141.016 C45.096,141.832 45.792,142.312 46.8,142.312 Z M72.048,135.832 C73.8,136.456 74.856,137.824 74.856,139.744 C74.856,142.48 72.72,144.4 69.648,144.4 L62.592,144.4 L62.592,128.56 L68.208,128.56 C71.136,128.56 73.224,130.36 73.224,132.976 C73.224,134.152 72.792,135.112 72.048,135.832 Z M67.944,131.344 L65.712,131.344 L65.712,134.968 L67.944,134.968 C69.288,134.968 70.008,134.224 70.008,133.144 C70.008,132.04 69.288,131.344 67.944,131.344 Z M69.408,141.616 C70.824,141.616 71.664,140.872 71.664,139.624 C71.664,138.4 70.824,137.632 69.408,137.632 L65.712,137.632 L65.712,141.616 L69.408,141.616 Z M82.968,132.256 C86.472,132.256 89.352,134.944 89.352,138.448 C89.352,141.976 86.472,144.664 82.944,144.664 C79.416,144.664 76.608,141.976 76.608,138.448 C76.608,134.944 79.416,132.256 82.968,132.256 Z M82.968,135.208 C81.168,135.208 79.896,136.6 79.896,138.472 C79.896,140.344 81.168,141.688 82.968,141.688 C84.72,141.688 86.04,140.32 86.04,138.472 C86.04,136.6 84.72,135.208 82.968,135.208 Z M95.112,126.4 L95.112,144.4 L91.872,144.4 L91.872,126.4 L95.112,126.4 Z M106.968,126.4 L110.208,126.4 L110.208,144.4 L107.232,144.4 L107.232,142.912 C106.416,144.04 105.072,144.688 103.416,144.688 C100.056,144.688 97.656,142.048 97.656,138.472 C97.656,134.896 100.056,132.256 103.416,132.256 C104.904,132.256 106.152,132.76 106.968,133.672 L106.968,126.4 Z M104.016,141.736 C105.504,141.736 107.016,140.752 107.016,138.472 C107.016,136.216 105.504,135.184 104.016,135.184 C102.336,135.184 100.944,136.432 100.944,138.448 C100.944,140.464 102.312,141.736 104.016,141.736 Z" id="Cera-Bold"></path>
                    <path d="M229.56,128.296 C232.536,128.296 235.008,129.736 236.352,131.944 L234.432,133.36 C233.328,131.656 231.696,130.624 229.584,130.624 C226.32,130.624 223.872,133.096 223.872,136.48 C223.872,139.864 226.32,142.336 229.584,142.336 C231.696,142.336 233.328,141.304 234.432,139.6 L236.352,141.016 C235.032,143.224 232.536,144.664 229.56,144.664 C224.928,144.664 221.232,141.136 221.232,136.48 C221.232,131.848 224.928,128.296 229.56,128.296 Z M249.792,137.752 C249.792,138.4 249.672,139.024 249.6,139.336 L240.816,139.336 C241.152,141.28 242.616,142.432 244.656,142.432 C246.024,142.432 247.104,141.904 248.088,141.04 L249.288,142.768 C248.04,143.944 246.456,144.664 244.584,144.664 C240.936,144.664 238.248,142 238.248,138.52 C238.248,135.064 240.912,132.352 244.344,132.352 C247.488,132.352 249.792,134.656 249.792,137.752 Z M244.248,134.488 C242.568,134.488 241.248,135.616 240.864,137.368 L247.272,137.368 C247.248,135.544 245.88,134.488 244.248,134.488 Z M258.456,132.496 C258.864,132.496 259.152,132.544 259.416,132.616 L259.416,134.848 L258.648,134.848 C256.776,134.848 255.192,135.928 255.192,138.112 L255.192,144.4 L252.672,144.4 L252.672,132.616 L255.024,132.616 L255.024,134.152 C255.84,133.072 257.112,132.496 258.456,132.496 Z M265.968,132.352 C268.8,132.352 270.792,134.008 270.792,137.272 L270.792,144.4 L268.44,144.4 L268.44,143.08 C267.6,144.088 266.304,144.664 264.672,144.664 C262.2,144.664 260.568,143.296 260.568,141.256 C260.568,139.192 262.272,137.896 264.912,137.896 L268.248,137.896 L268.248,137.128 C268.248,135.496 267.336,134.608 265.728,134.608 C264.36,134.608 263.4,135.256 262.464,136.36 L261,134.872 C262.224,133.144 263.976,132.352 265.968,132.352 Z M265.2,142.72 C266.856,142.72 268.248,141.544 268.248,139.936 L268.248,139.72 L265.224,139.72 C263.88,139.72 263.136,140.2 263.136,141.16 C263.136,142.192 264.048,142.72 265.2,142.72 Z M295.368,128.296 L296.232,128.296 L296.232,144.4 L293.688,144.4 L293.688,134.464 L289.152,140.416 L288.288,140.416 L283.728,134.464 L283.728,144.4 L281.184,144.4 L281.184,128.296 L282.072,128.296 L288.72,137.152 L295.368,128.296 Z M310.728,137.752 C310.728,138.4 310.608,139.024 310.536,139.336 L301.752,139.336 C302.088,141.28 303.552,142.432 305.592,142.432 C306.96,142.432 308.04,141.904 309.024,141.04 L310.224,142.768 C308.976,143.944 307.392,144.664 305.52,144.664 C301.872,144.664 299.184,142 299.184,138.52 C299.184,135.064 301.848,132.352 305.28,132.352 C308.424,132.352 310.728,134.656 310.728,137.752 Z M305.184,134.488 C303.504,134.488 302.184,135.616 301.8,137.368 L308.208,137.368 C308.184,135.544 306.816,134.488 305.184,134.488 Z M322.56,126.4 L325.104,126.4 L325.104,144.4 L322.752,144.4 L322.752,142.72 C321.888,143.944 320.376,144.664 318.624,144.664 C315.264,144.664 312.864,142.024 312.864,138.52 C312.864,135.016 315.288,132.352 318.624,132.352 C320.256,132.352 321.672,132.976 322.56,134.056 L322.56,126.4 Z M319.056,142.36 C320.808,142.36 322.608,141.208 322.608,138.52 C322.608,135.856 320.808,134.656 319.056,134.656 C317.016,134.656 315.432,136.216 315.432,138.496 C315.432,140.776 316.992,142.36 319.056,142.36 Z M330.024,126.544 C330.96,126.544 331.752,127.288 331.752,128.224 C331.752,129.16 330.96,129.88 330.024,129.88 C329.064,129.88 328.296,129.16 328.296,128.224 C328.296,127.288 329.064,126.544 330.024,126.544 Z M331.272,132.616 L331.272,144.4 L328.752,144.4 L328.752,132.616 L331.272,132.616 Z M345.072,132.616 L345.072,139.456 C345.072,142.648 342.84,144.664 339.96,144.664 C337.032,144.664 334.8,142.648 334.8,139.456 L334.8,132.616 L337.296,132.616 L337.296,139.648 C337.296,141.304 338.472,142.336 339.96,142.336 C341.4,142.336 342.552,141.304 342.552,139.648 L342.552,132.616 L345.072,132.616 Z M361.92,132.352 C364.704,132.352 366.288,134.272 366.288,137.032 L366.288,144.4 L363.744,144.4 L363.744,137.392 C363.744,135.76 362.832,134.656 361.296,134.656 C359.76,134.656 358.704,135.784 358.704,137.272 L358.704,144.4 L356.184,144.4 L356.184,137.392 C356.184,135.76 355.224,134.656 353.712,134.656 C352.176,134.656 351.12,135.76 351.12,137.392 L351.12,144.4 L348.6,144.4 L348.6,132.616 L350.952,132.616 L350.952,133.744 C351.744,132.88 352.92,132.352 354.36,132.352 C356.04,132.352 357.24,133.048 357.936,134.2 C358.776,133.12 360.168,132.352 361.92,132.352 Z" id="Cera-Medium"></path>
                    <path d="M465.584,128.296 C468.464,128.296 470.84,129.688 472.16,131.704 L470.768,132.808 C469.592,131.08 467.816,130.024 465.608,130.024 C462.032,130.024 459.296,132.784 459.296,136.48 C459.296,140.176 462.032,142.936 465.608,142.936 C467.816,142.936 469.592,141.88 470.768,140.152 L472.16,141.256 C470.888,143.272 468.464,144.664 465.584,144.664 C461,144.664 457.352,141.112 457.352,136.48 C457.352,131.848 461,128.296 465.584,128.296 Z M485.624,137.728 C485.624,138.352 485.528,138.904 485.48,139.12 L476.264,139.12 C476.504,141.448 478.232,142.96 480.536,142.96 C482,142.96 483.152,142.336 484.112,141.376 L485.192,142.624 C484.016,143.872 482.432,144.664 480.512,144.664 C476.984,144.664 474.32,142 474.32,138.568 C474.32,135.16 476.936,132.448 480.296,132.448 C483.296,132.448 485.624,134.608 485.624,137.728 Z M480.248,134.128 C478.28,134.128 476.72,135.472 476.336,137.488 L483.728,137.488 C483.704,135.328 482.12,134.128 480.248,134.128 Z M494.216,132.616 C494.6,132.616 494.84,132.664 495.08,132.712 L495.08,134.344 L494.384,134.344 C492.488,134.344 490.712,135.544 490.712,137.776 L490.712,144.4 L488.864,144.4 L488.864,132.712 L490.592,132.712 L490.592,134.392 C491.456,133.24 492.824,132.616 494.216,132.616 Z M501.512,132.448 C504.176,132.448 506.072,134.056 506.072,137.2 L506.072,144.4 L504.344,144.4 L504.344,142.888 C503.504,144.016 502.136,144.664 500.408,144.664 C498.056,144.664 496.328,143.416 496.328,141.376 C496.328,139.408 497.984,138.112 500.528,138.112 L504.224,138.112 L504.224,137.104 C504.224,135.136 503.12,134.152 501.392,134.152 C499.928,134.152 498.896,134.848 497.984,136.024 L496.76,135.016 C497.864,133.24 499.64,132.448 501.512,132.448 Z M500.648,143.128 C502.568,143.128 504.224,141.736 504.224,139.912 L504.224,139.624 L500.744,139.624 C499.112,139.624 498.224,140.176 498.224,141.28 C498.224,142.528 499.352,143.128 500.648,143.128 Z M529.208,144.4 L527.024,144.4 L522.104,137.752 L518.72,137.752 L518.72,144.4 L516.848,144.4 L516.848,128.56 L522.416,128.56 C525.536,128.56 527.48,130.48 527.48,133.144 C527.48,135.28 526.232,136.936 524.168,137.536 L529.208,144.4 Z M518.72,130.24 L518.72,136.072 L522.344,136.072 C524.432,136.072 525.536,134.872 525.536,133.168 C525.536,131.488 524.432,130.24 522.344,130.24 L518.72,130.24 Z M541.736,137.728 C541.736,138.352 541.64,138.904 541.592,139.12 L532.376,139.12 C532.616,141.448 534.344,142.96 536.648,142.96 C538.112,142.96 539.264,142.336 540.224,141.376 L541.304,142.624 C540.128,143.872 538.544,144.664 536.624,144.664 C533.096,144.664 530.432,142 530.432,138.568 C530.432,135.16 533.048,132.448 536.408,132.448 C539.408,132.448 541.736,134.608 541.736,137.728 Z M536.36,134.128 C534.392,134.128 532.832,135.472 532.448,137.488 L539.84,137.488 C539.816,135.328 538.232,134.128 536.36,134.128 Z M554.456,132.712 L556.208,132.712 L556.208,143.272 C556.208,146.872 553.928,148.984 550.52,148.984 C548.072,148.984 546.176,147.88 545.024,146.728 L546.104,145.432 C547.232,146.416 548.552,147.28 550.472,147.28 C552.848,147.28 554.36,145.96 554.36,143.368 L554.36,142.336 C553.4,143.56 551.768,144.28 550.016,144.28 C546.728,144.28 544.28,141.784 544.28,138.376 C544.28,134.992 546.728,132.448 550.016,132.448 C551.864,132.448 553.544,133.264 554.456,134.608 L554.456,132.712 Z M550.304,142.576 C552.344,142.576 554.384,141.304 554.384,138.376 C554.384,135.448 552.32,134.2 550.304,134.2 C547.928,134.2 546.152,135.928 546.152,138.4 C546.152,140.872 547.928,142.576 550.304,142.576 Z M569.792,132.712 L569.792,139.744 C569.792,142.744 567.656,144.664 564.968,144.664 C562.232,144.664 560.12,142.744 560.12,139.744 L560.12,132.712 L561.944,132.712 L561.944,139.864 C561.944,141.784 563.288,142.96 564.968,142.96 C566.6,142.96 567.944,141.784 567.944,139.864 L567.944,132.712 L569.792,132.712 Z M575.552,126.4 L575.552,144.4 L573.704,144.4 L573.704,126.4 L575.552,126.4 Z M583.808,132.448 C586.472,132.448 588.368,134.056 588.368,137.2 L588.368,144.4 L586.64,144.4 L586.64,142.888 C585.8,144.016 584.432,144.664 582.704,144.664 C580.352,144.664 578.624,143.416 578.624,141.376 C578.624,139.408 580.28,138.112 582.824,138.112 L586.52,138.112 L586.52,137.104 C586.52,135.136 585.416,134.152 583.688,134.152 C582.224,134.152 581.192,134.848 580.28,136.024 L579.056,135.016 C580.16,133.24 581.936,132.448 583.808,132.448 Z M582.944,143.128 C584.864,143.128 586.52,141.736 586.52,139.912 L586.52,139.624 L583.04,139.624 C581.408,139.624 580.52,140.176 580.52,141.28 C580.52,142.528 581.648,143.128 582.944,143.128 Z M597.632,132.616 C598.016,132.616 598.256,132.664 598.496,132.712 L598.496,134.344 L597.8,134.344 C595.904,134.344 594.128,135.544 594.128,137.776 L594.128,144.4 L592.28,144.4 L592.28,132.712 L594.008,132.712 L594.008,134.392 C594.872,133.24 596.24,132.616 597.632,132.616 Z" id="Cera-Regular"></path>
                </g>
                <path d="M253.828,0.44 L253.828,2.392 L249.044,2.392 L249.044,5.032 L252.964,5.032 L252.964,6.984 L249.044,6.984 L249.044,11 L246.884,11 L246.884,0.44 L253.828,0.44 Z M260.356,0.248 C263.46,0.248 265.988,2.616 265.988,5.72 C265.988,8.824 263.46,11.192 260.356,11.192 C257.252,11.192 254.756,8.824 254.756,5.72 C254.756,2.616 257.252,0.248 260.356,0.248 Z M260.372,2.248 C258.404,2.248 256.98,3.688 256.98,5.72 C256.98,7.768 258.404,9.192 260.372,9.192 C262.308,9.192 263.764,7.768 263.764,5.72 C263.764,3.688 262.308,2.248 260.372,2.248 Z M274.644,0.44 L276.804,0.44 L276.804,11.192 L276.084,11.192 L269.972,4.664 L269.972,11 L267.812,11 L267.812,0.248 L268.516,0.248 L274.644,6.728 L274.644,0.44 Z M287.156,0.44 L287.156,2.392 L283.764,2.392 L283.764,11 L281.604,11 L281.604,2.392 L278.228,2.392 L278.228,0.44 L287.156,0.44 Z M299.204,0.44 L299.204,2.392 L294.42,2.392 L294.42,5.032 L298.34,5.032 L298.34,6.984 L294.42,6.984 L294.42,11 L292.26,11 L292.26,0.44 L299.204,0.44 Z M306.596,11 L306.004,9.624 L301.684,9.624 L301.092,11 L298.772,11 L303.492,0.248 L304.212,0.248 L308.916,11 L306.596,11 Z M305.236,7.848 L303.844,4.296 L302.452,7.848 L305.236,7.848 Z M319.988,0.248 L320.692,0.248 L320.692,11 L318.532,11 L318.532,5.352 L315.876,8.696 L315.172,8.696 L312.516,5.352 L312.516,11 L310.356,11 L310.356,0.248 L311.06,0.248 L315.524,5.976 L319.988,0.248 Z M325.284,0.44 L325.284,11 L323.124,11 L323.124,0.44 L325.284,0.44 Z M329.86,0.44 L329.86,9.048 L334.484,9.048 L334.484,11 L327.7,11 L327.7,0.44 L329.86,0.44 Z M343.06,0.44 L339.428,6.84 L339.428,11 L337.268,11 L337.268,6.856 L333.62,0.44 L336.02,0.44 L338.34,4.632 L340.676,0.44 L343.06,0.44 Z" id="FONT-FAMILY"></path>
            </g>
        </g>
    </g>
</svg>