<?xml version="1.0" encoding="UTF-8"?>
<svg width="121px" height="52px" viewBox="0 0 121 52" version="1.1" xmlns="http://www.w3.org/2000/svg" xmlns:xlink="http://www.w3.org/1999/xlink">
    <!-- Generator: Sketch 47.1 (45422) - http://www.bohemiancoding.com/sketch -->
    <title>Page 1</title>
    <desc>Created with Sketch.</desc>
    <defs>
        <polygon id="path-1" points="43.5696632 43.9129188 43.5696632 0.34122314 0.0991540678 0.34122314 0.0991540678 43.9129188 43.5696632 43.9129188"></polygon>
        <polygon id="path-3" points="0.00012436509 43.8347107 43.4706626 43.8347107 43.4706626 0.260057058 0.00012436509 0.260057058"></polygon>
    </defs>
    <g id="Page-1" stroke="none" stroke-width="1" fill="none" fill-rule="evenodd">
        <g id="Artboard" transform="translate(-68.000000, -49.000000)">
            <g id="Page-1" transform="translate(68.000000, 49.000000)">
                <g id="Group-3" transform="translate(77.305556, 0.088529)">
                    <mask id="mask-2" fill="white">
                        <use xlink:href="#path-1"></use>
                    </mask>
                    <g id="Clip-2"></g>
                    <path d="M43.4523604,37.1806017 C43.8132597,38.3426512 43.3309403,39.0848331 42.1642146,39.2257917 L35.5697146,39.9873124 C34.5744056,40.0973289 33.7908465,39.6774612 33.5757354,38.7264198 L27.7979854,15.4411636 C27.6269889,14.8880727 27.1829021,14.9417917 27.1358465,15.520238 L26.0380236,39.5953785 C25.9829854,40.5769322 25.3683222,41.1695603 24.3696521,41.2795769 L19.6040167,41.8296595 C18.6053465,41.9512793 17.8856486,41.5137917 17.6150792,40.5687669 L11.2856868,17.3565686 C11.1117493,16.8039074 10.6680826,16.8571967 10.6155653,17.435643 L10.0748465,41.4488992 C10.0693847,42.4167008 9.40220417,43.014486 8.406475,43.1300893 L1.811975,43.8946182 C0.642728472,44.0299901 0.0167215278,43.4094281 0.107891667,42.196238 L2.90139514,5.05964298 C2.96189514,4.07508099 3.57445764,3.48846942 4.57018681,3.3694281 L12.3889715,2.46952727 C13.3847007,2.35134545 14.0518813,2.79399008 14.3804299,3.72784132 L18.9721278,17.3312132 C19.1431243,17.8787174 19.5901521,17.8280066 19.6342667,17.2495603 L21.1400444,2.95213884 C21.2585236,1.96199008 21.807225,1.38053554 22.8113569,1.26536198 L30.622159,0.359444628 C31.620409,0.243841322 32.3455688,0.675742149 32.6131972,1.62076694 L43.4523604,37.1806017 Z" id="Fill-1" fill="#FEFEFE" mask="url(#mask-2)"></path>
                </g>
                <g id="Group-6" transform="translate(0.000000, 7.824066)">
                    <mask id="mask-4" fill="white">
                        <use xlink:href="#path-3"></use>
                    </mask>
                    <g id="Clip-5"></g>
                    <path d="M0.1134375,6.99765289 C-0.239479167,5.82958678 0.243260417,5.08482645 1.40410417,4.94902479 L7.99860417,4.18750413 C9.00231597,4.07190083 9.77747222,4.49520661 9.99510417,5.44581818 L15.7678125,28.7280661 C15.9442708,29.2841653 16.3799549,29.2334545 16.4354132,28.6494215 L17.532816,4.57385124 C17.593316,3.59530579 18.2083993,3.00267769 19.1986667,2.89266116 L23.970184,2.34257851 C24.968434,2.22439669 25.6881319,2.65543802 25.9612222,3.60390083 L32.2880938,26.8182479 C32.4645521,27.3769256 32.9031771,27.3262149 32.9582153,26.7421818 L33.498934,2.72892562 C33.5069167,1.75038017 34.1635938,1.16076033 35.1673056,1.04472727 L41.7647465,0.277619835 C42.9285312,0.145256198 43.56,0.765818182 43.4604271,1.97857851 L40.6694444,39.1156033 C40.6118854,40.1001653 39.9968021,40.6872066 39.0035938,40.7916364 L31.18775,41.7027107 C30.186559,41.8208926 29.5218993,41.3812562 29.1933507,40.4383802 L24.6016528,26.8440331 C24.4277153,26.2965289 23.9836285,26.3446612 23.9395139,26.9286942 L22.4312153,41.2231074 C22.3152569,42.2218512 21.7636146,42.7972893 20.7624236,42.9154711 L12.9491007,43.8158017 C11.9479097,43.9339835 11.2282118,43.4999339 10.9551215,42.5574876 L0.1134375,6.99765289 Z" id="Fill-4" fill="#FEFEFE" mask="url(#mask-4)"></path>
                </g>
                <path d="M46.9747208,20.4202711 C47.2641965,16.5976264 48.8388771,6.24446942 61.9753597,4.73518017 C75.1118424,3.2142876 75.0950368,13.3757752 74.7971583,17.2044364 L73.6690854,31.6879405 C73.3741479,35.5161719 71.8019882,45.8607339 58.6659257,47.3872132 C45.5265021,48.907676 45.5462486,38.7345851 45.8411861,34.9123702 L46.9747208,20.4202711 Z M55.6152972,30.7313124 C55.2649014,35.2003041 55.3338042,37.8884033 59.432259,37.4118083 C63.5420576,36.9382215 64.0353007,34.181362 64.3718319,29.7239736 L65.0255681,21.3768992 C65.3705021,16.913924 65.3070611,14.225395 61.2031444,14.6989818 C57.0962868,15.1729983 56.6080854,17.9264198 56.2606306,22.3924033 L55.6152972,30.7313124 Z" id="Fill-7" fill="#FEFEFE"></path>
            </g>
        </g>
    </g>
</svg>